<svg class="to-top" viewBox="0 0 42 44" fill="none" xmlns="http://www.w3.org/2000/svg">
<path d="M22.6648 43.3217C23.1014 42.8874 23.3466 42.2984 23.3466 41.6842L23.3466 7.98434L37.937 22.4979C38.158 22.7178 38.4204 22.8922 38.7091 23.0112C38.9979 23.1302 39.3074 23.1914 39.6199 23.1914C39.9325 23.1914 40.242 23.1302 40.5308 23.0112C40.8195 22.8922 41.0819 22.7178 41.3029 22.4979C41.5239 22.278 41.6992 22.017 41.8188 21.7297C41.9384 21.4424 42 21.1345 42 20.8236C42 20.5126 41.9384 20.2047 41.8188 19.9174C41.6992 19.6301 41.5239 19.3691 41.3029 19.1493L22.7903 0.734107C22.5693 0.514232 22.3069 0.339812 22.0181 0.220817C21.999 0.212943 21.9798 0.205317 21.9605 0.197947C21.6667 0.0686522 21.3463 -9.33078e-07 21.0189 -9.18764e-07C20.7076 -9.05157e-07 20.4027 0.0620299 20.121 0.17921C20.0846 0.192184 20.0484 0.206058 20.0126 0.220817C19.7239 0.339812 19.4615 0.514232 19.2405 0.734107L0.727833 19.1493C0.500162 19.3678 0.31855 19.6293 0.193596 19.9185C0.068643 20.2076 0.00286483 20.5186 9.0569e-05 20.8333C-0.00268369 21.1481 0.0575985 21.4602 0.177435 21.7515C0.297272 22.0428 0.474249 22.3074 0.698033 22.5299C0.921817 22.7523 1.18792 22.9282 1.48079 23.0473C1.77367 23.1663 2.08746 23.2261 2.40382 23.2231C2.72017 23.2201 3.03275 23.1544 3.32331 23.0299C3.61387 22.9054 3.87659 22.7245 4.09611 22.4979L18.6911 7.97789L18.6911 41.6842C18.6911 42.2984 18.9364 42.8874 19.3729 43.3217C19.8094 43.756 20.4015 44 21.0189 44C21.6362 44 22.2283 43.756 22.6648 43.3217Z" fill="#666666" fill-opacity="0.6"/>
</svg>
