<svg width="12" height="24" viewBox="0 0 12 24" fill="none" xmlns="http://www.w3.org/2000/svg">
<path d="M6.9985 7.18955V7.59056L7.3995 7.58955L10.7516 7.58116L10.5097 10.0569L10.5096 10.0569L10.5092 10.0629L10.3827 11.5953H7.2133H6.8133V11.9953V23.6H2.82184V11.9953V11.5953H2.42184H0.4V7.58955H2.37436H2.77436V7.18955V5.02889C2.77436 4.08994 2.99563 2.9273 3.6747 2.00983C4.33843 1.11308 5.47609 0.4 7.42699 0.4H10.7452V3.71713H8.46313C8.25964 3.70734 8.05641 3.74187 7.8675 3.81838C7.67478 3.89642 7.50175 4.01622 7.36088 4.16915C7.22001 4.32208 7.11479 4.50434 7.05279 4.7028C6.99379 4.89168 6.97534 5.09077 6.9985 5.28706V7.18955Z" stroke="#666666" stroke-width="0.8"/>
</svg>
