<svg width="24" height="24" viewBox="0 0 24 24" fill="none" xmlns="http://www.w3.org/2000/svg">
<path fill-rule="evenodd" clip-rule="evenodd" d="M19.6129 6.45161C20.753 6.45161 21.6774 5.52731 21.6774 4.3871C21.6774 3.24688 20.753 2.32258 19.6129 2.32258C18.4728 2.32258 17.5484 3.24688 17.5484 4.3871C17.5484 5.52731 18.4728 6.45161 19.6129 6.45161ZM19.6129 5.67742C20.3256 5.67742 20.9032 5.09974 20.9032 4.3871C20.9032 3.67446 20.3256 3.09677 19.6129 3.09677C18.9002 3.09677 18.3226 3.67446 18.3226 4.3871C18.3226 5.09974 18.9002 5.67742 19.6129 5.67742Z" fill="#666666"/>
<path fill-rule="evenodd" clip-rule="evenodd" d="M5.07686 11.9945C5.07787 10.6243 5.48513 9.28516 6.24748 8.14642C7.00958 7.00772 8.09224 6.12059 9.35862 5.59722C10.625 5.07384 12.0181 4.93775 13.3619 5.20612C14.5375 5.44097 15.6293 5.97625 16.5323 6.75599C16.5567 6.777 16.5809 6.7982 16.6048 6.81956L16.6494 6.85963L16.6925 6.89882C16.7321 6.93507 16.7712 6.97181 16.81 7.00904C16.8427 7.04067 16.8753 7.07267 16.9075 7.105C17.8758 8.07466 18.5345 9.30963 18.8009 10.6538C19.067 11.9979 18.9289 13.3908 18.4035 14.6563C17.878 15.9218 16.9892 17.0031 15.8493 17.7635C14.7094 18.5239 13.369 18.9292 11.9987 18.9281C10.1905 18.9252 8.4564 18.2162 7.16457 16.9541L7.10358 16.8936C5.8057 15.5937 5.07686 13.8314 5.07686 11.9945ZM12 18.1281C13.2119 18.129 14.3972 17.7706 15.4055 17.098C16.4136 16.4254 17.1998 15.469 17.6646 14.3496C18.1293 13.2302 18.2515 11.9981 18.0161 10.8092C17.7805 9.62031 17.1978 8.52791 16.3415 7.67021C15.4851 6.81253 14.3936 6.22801 13.2051 5.99061C12.0166 5.75324 10.7843 5.87361 9.66406 6.33657C8.5441 6.79949 7.58644 7.58417 6.9123 8.59142C6.23816 9.59863 5.87777 10.7831 5.87676 11.9952C5.87676 13.6201 6.52167 15.1785 7.66961 16.3284C8.81779 17.4782 10.3753 18.1255 12 18.1281Z" fill="#666666"/>
<path fill-rule="evenodd" clip-rule="evenodd" d="M1.66608 1.66605C2.72933 0.602823 4.17011 0.00384325 5.67389 0H18.3311C19.8334 0.00384325 21.2729 0.602287 22.3354 1.66463C23.3989 2.72814 23.9975 4.1698 24 5.6738V18.3262C23.995 19.8294 23.3954 21.2696 22.3327 22.3326C21.2697 23.3955 19.8294 23.9949 18.3261 24H5.67389C4.17087 23.9936 2.7316 23.3938 1.66885 22.3311C0.606099 21.2685 0.0063004 19.829 0 18.3262V5.6738C0.00378024 4.17017 0.602823 2.72924 1.66608 1.66605ZM2.23185 2.23173C3.14516 1.31826 4.38306 0.803553 5.6749 0.799994H18.3256C18.4062 0.800151 18.4869 0.802293 18.567 0.80642C19.7712 0.868227 20.9131 1.37377 21.7697 2.23031C22.6835 3.14412 23.1978 4.38284 23.2001 5.67515V18.3246C23.1953 19.6162 22.6802 20.8535 21.7669 21.7669C20.8536 22.6802 19.6162 23.1953 18.3246 23.2H5.67591C5.59526 23.1996 5.51462 23.1973 5.43448 23.1929C4.2311 23.1282 3.09073 22.6216 2.23463 21.7655C1.32132 20.8524 0.805948 19.6157 0.799899 18.3245V5.67484C0.799899 5.64097 0.800403 5.60714 0.801159 5.57334C0.802419 5.52659 0.804183 5.4799 0.806704 5.43334C0.869456 4.22959 1.37525 3.08808 2.23185 2.23173Z" fill="#666666"/>
</svg>
